ffmpeg version 3.4.8-0ubuntu0.2 Copyright (c) 2000-2020 the FFmpeg developers
  built with gcc 7 (Ubuntu 7.5.0-3ubuntu1~18.04)
  configuration: --prefix=/usr --extra-version=0ubuntu0.2 --toolchain=hardened --libdir=/usr/lib/x86_64-linux-gnu --incdir=/usr/include/x86_64-linux-gnu --enable-gpl --disable-stripping --enable-avresample --enable-avisynth --enable-gnutls --enable-ladspa --enable-libass --enable-libbluray --enable-libbs2b --enable-libcaca --enable-libcdio --enable-libflite --enable-libfontconfig --enable-libfreetype --enable-libfribidi --enable-libgme --enable-libgsm --enable-libmp3lame --enable-libmysofa --enable-libopenjpeg --enable-libopenmpt --enable-libopus --enable-libpulse --enable-librubberband --enable-librsvg --enable-libshine --enable-libsnappy --enable-libsoxr --enable-libspeex --enable-libssh --enable-libtheora --enable-libtwolame --enable-libvorbis --enable-libvpx --enable-libwavpack --enable-libwebp --enable-libx265 --enable-libxml2 --enable-libxvid --enable-libzmq --enable-libzvbi --enable-omx --enable-openal --enable-opengl --enable-sdl2 --enable-libdc1394 --enable-libdrm --enable-libiec61883 --enable-chromaprint --enable-frei0r --enable-libopencv --enable-libx264 --enable-shared
  libavutil      55. 78.100 / 55. 78.100
  libavcodec     57.107.100 / 57.107.100
  libavformat    57. 83.100 / 57. 83.100
  libavdevice    57. 10.100 / 57. 10.100
  libavfilter     6.107.100 /  6.107.100
  libavresample   3.  7.  0 /  3.  7.  0
  libswscale      4.  8.100 /  4.  8.100
  libswresample   2.  9.100 /  2.  9.100
  libpostproc    54.  7.100 / 54.  7.100
Input #0, yuv4mpegpipe, from '../.././Samples/Netflix_Boat_4096x2160_60fps_10bit_420.y4m':
  Duration: 00:00:05.00, start: 0.000000, bitrate: 12740201 kb/s
    Stream #0:0: Video: rawvideo (Y3[11][10] / 0xA0B3359), yuv420p10le(progressive), 4096x2160, SAR 1:1 DAR 256:135, 60 fps, 60 tbr, 60 tbn, 60 tbc
Stream mapping:
  Stream #0:0 -> #0:0 (rawvideo (native) -> h264 (libx264))
Press [q] to stop, [?] for help
[libx264 @ 0x561246e9b900] using SAR=1/1
[libx264 @ 0x561246e9b900] using cpu capabilities: MMX2 SSE2Fast SSSE3 SSE4.2 AVX FMA3 BMI2 AVX2
[libx264 @ 0x561246e9b900] profile High, level 5.2
[libx264 @ 0x561246e9b900] 264 - core 152 r2854 e9a5903 - H.264/MPEG-4 AVC codec - Copyleft 2003-2017 - http://www.videolan.org/x264.html - options: cabac=1 ref=3 deblock=1:0:0 analyse=0x3:0x113 me=hex subme=7 psy=1 psy_rd=1.00:0.00 mixed_ref=1 me_range=16 chroma_me=1 trellis=1 8x8dct=1 cqm=0 deadzone=21,11 fast_pskip=1 chroma_qp_offset=-2 threads=6 lookahead_threads=1 sliced_threads=0 nr=0 decimate=1 interlaced=0 bluray_compat=0 constrained_intra=0 bframes=3 b_pyramid=2 b_adapt=1 b_bias=0 direct=1 weightb=1 open_gop=0 weightp=2 keyint=250 keyint_min=25 scenecut=40 intra_refresh=0 rc_lookahead=40 rc=crf mbtree=1 crf=23.0 qcomp=0.60 qpmin=0 qpmax=69 qpstep=4 ip_ratio=1.40 aq=1:1.00
Output #0, mov, to '/home/aleksandr/Pract/Samples/Netflix_Boat_4096x2160_60fps_10bit_420.y4m_tc/output_tc3.mov':
  Metadata:
    encoder         : Lavf57.83.100
    Stream #0:0: Video: h264 (libx264) (avc1 / 0x31637661), yuv420p, 4096x2160 [SAR 1:1 DAR 256:135], q=-1--1, 60 fps, 15360 tbn, 60 tbc
    Metadata:
      encoder         : Lavc57.107.100 libx264
    Side data:
      cpb: bitrate max/min/avg: 0/0/0 buffer size: 0 vbv_delay: -1
frame=    4 fps=0.0 q=0.0 size=       0kB time=00:00:00.00 bitrate=N/A speed=   0x    frame=    7 fps=5.8 q=0.0 size=       0kB time=00:00:00.00 bitrate=N/A speed=   0x    frame=   17 fps=9.9 q=0.0 size=       0kB time=00:00:00.00 bitrate=N/A speed=   0x    frame=   39 fps= 18 q=0.0 size=       0kB time=00:00:00.00 bitrate=N/A speed=   0x    frame=   44 fps= 15 q=0.0 size=       0kB time=00:00:00.00 bitrate=N/A speed=   0x    frame=   47 fps=9.6 q=0.0 size=       0kB time=00:00:00.00 bitrate=N/A speed=   0x    frame=   49 fps=8.9 q=0.0 size=       0kB time=00:00:00.00 bitrate=N/A speed=   0x    frame=   52 fps=8.4 q=31.0 size=     768kB time=-00:00:00.01 bitrate=N/A speed=N/A    frame=   55 fps=8.1 q=31.0 size=     768kB time=00:00:00.03 bitrate=188386.8kbits/s speed=0.0049x    frame=   58 fps=7.8 q=31.0 size=    1024kB time=00:00:00.08 bitrate=100588.7kbits/s speed=0.0112x    frame=   61 fps=7.5 q=31.0 size=    1280kB time=00:00:00.13 bitrate=78607.2kbits/s speed=0.0165x    frame=   64 fps=7.3 q=31.0 size=    1536kB time=00:00:00.18 bitrate=68611.4kbits/s speed=0.021x    frame=   66 fps=7.1 q=31.0 size=    1536kB time=00:00:00.21 bitrate=58058.8kbits/s speed=0.0234x    frame=   69 fps=7.0 q=31.0 size=    1792kB time=00:00:00.26 bitrate=55037.8kbits/s speed=0.027x    frame=   72 fps=6.8 q=31.0 size=    2048kB time=00:00:00.31 bitrate=52970.7kbits/s speed=0.0301x    frame=   75 fps=6.7 q=31.0 size=    2048kB time=00:00:00.36 bitrate=45748.7kbits/s speed=0.0328x    frame=   78 fps=6.6 q=31.0 size=    2304kB time=00:00:00.41 bitrate=45292.1kbits/s speed=0.035x    frame=   80 fps=6.4 q=31.0 size=    2560kB time=00:00:00.45 bitrate=46597.3kbits/s speed=0.0358x    frame=   83 fps=6.3 q=31.0 size=    2560kB time=00:00:00.50 bitrate=41938.2kbits/s speed=0.0379x    frame=   86 fps=6.2 q=31.0 size=    2816kB time=00:00:00.55 bitrate=41938.6kbits/s speed=0.0397x    frame=   88 fps=6.1 q=31.0 size=    3072kB time=00:00:00.58 bitrate=43137.1kbits/s speed=0.0406x    frame=   91 fps=6.0 q=31.0 size=    3072kB time=00:00:00.63 bitrate=39731.9kbits/s speed=0.0421x    frame=   94 fps=6.0 q=31.0 size=    3328kB time=00:00:00.68 bitrate=39893.7kbits/s speed=0.0436x    frame=   97 fps=5.9 q=31.0 size=    3584kB time=00:00:00.73 bitrate=40033.4kbits/s speed=0.045x    frame=  100 fps=5.9 q=31.0 size=    3840kB time=00:00:00.78 bitrate=40155.3kbits/s speed=0.0463x    frame=  103 fps=5.9 q=31.0 size=    3840kB time=00:00:00.83 bitrate=37746.2kbits/s speed=0.0475x    frame=  106 fps=5.8 q=31.0 size=    4096kB time=00:00:00.88 bitrate=37983.7kbits/s speed=0.0485x    frame=  109 fps=5.8 q=31.0 size=    4352kB time=00:00:00.93 bitrate=38195.8kbits/s speed=0.0494x    frame=  111 fps=5.7 q=31.0 size=    4352kB time=00:00:00.96 bitrate=36878.8kbits/s speed=0.0495x    frame=  114 fps=5.6 q=31.0 size=    4608kB time=00:00:01.01 bitrate=37127.8kbits/s speed=0.0503x    frame=  117 fps=5.6 q=31.0 size=    4864kB time=00:00:01.06 bitrate=37353.5kbits/s speed=0.0512x    frame=  120 fps=5.6 q=31.0 size=    5120kB time=00:00:01.11 bitrate=37559.0kbits/s speed=0.052x    frame=  123 fps=5.6 q=31.0 size=    5120kB time=00:00:01.16 bitrate=35949.4kbits/s speed=0.0528x    frame=  125 fps=5.5 q=31.0 size=    5376kB time=00:00:01.20 bitrate=36698.4kbits/s speed=0.0527x    frame=  127 fps=5.4 q=31.0 size=    5376kB time=00:00:01.23 bitrate=35706.6kbits/s speed=0.0527x    frame=  130 fps=5.4 q=31.0 size=    5632kB time=00:00:01.28 bitrate=35949.6kbits/s speed=0.0534x    frame=  133 fps=5.4 q=31.0 size=    5888kB time=00:00:01.33 bitrate=36174.3kbits/s speed=0.0538x    frame=  136 fps=5.4 q=31.0 size=    6144kB time=00:00:01.38 bitrate=36382.8kbits/s speed=0.0545x    frame=  139 fps=5.3 q=31.0 size=    6144kB time=00:00:01.43 bitrate=35113.7kbits/s speed=0.055x    frame=  142 fps=5.3 q=31.0 size=    6400kB time=00:00:01.48 bitrate=35343.9kbits/s speed=0.0556x    frame=  145 fps=5.3 q=31.0 size=    6656kB time=00:00:01.53 bitrate=35559.1kbits/s speed=0.0561x    frame=  148 fps=5.3 q=31.0 size=    6912kB time=00:00:01.58 bitrate=35760.7kbits/s speed=0.0567x    frame=  150 fps=5.3 q=31.0 size=    6912kB time=00:00:01.61 bitrate=35023.4kbits/s speed=0.0568x    frame=  153 fps=5.3 q=31.0 size=    7168kB time=00:00:01.66 bitrate=35230.9kbits/s speed=0.0572x    frame=  156 fps=5.2 q=31.0 size=    7424kB time=00:00:01.71 bitrate=35426.4kbits/s speed=0.0576x    frame=  159 fps=5.2 q=31.0 size=    7424kB time=00:00:01.76 bitrate=34423.8kbits/s speed=0.0581x    frame=  162 fps=5.2 q=31.0 size=    7680kB time=00:00:01.81 bitrate=34630.8kbits/s speed=0.0585x    frame=  165 fps=5.2 q=31.0 size=    7936kB time=00:00:01.86 bitrate=34826.6kbits/s speed=0.0589x    frame=  167 fps=5.2 q=31.0 size=    8192kB time=00:00:01.90 bitrate=35319.4kbits/s speed=0.059x    frame=  170 fps=5.2 q=31.0 size=    8448kB time=00:00:01.95 bitrate=35489.2kbits/s speed=0.0593x    frame=  173 fps=5.2 q=31.0 size=    8704kB time=00:00:02.00 bitrate=35650.6kbits/s speed=0.0597x    frame=  176 fps=5.1 q=31.0 size=    8960kB time=00:00:02.05 bitrate=35804.0kbits/s speed=0.06x    frame=  179 fps=5.1 q=31.0 size=    8960kB time=00:00:02.10 bitrate=34951.6kbits/s speed=0.0603x    frame=  182 fps=5.1 q=31.0 size=    9216kB time=00:00:02.15 bitrate=35114.2kbits/s speed=0.0606x    frame=  185 fps=5.1 q=31.0 size=    9472kB time=00:00:02.20 bitrate=35269.4kbits/s speed=0.0609x    frame=  188 fps=5.1 q=31.0 size=    9728kB time=00:00:02.25 bitrate=35417.7kbits/s speed=0.0612x    frame=  191 fps=5.1 q=31.0 size=    9728kB time=00:00:02.30 bitrate=34647.7kbits/s speed=0.0615x    frame=  194 fps=5.1 q=31.0 size=    9984kB time=00:00:02.35 bitrate=34803.0kbits/s speed=0.0618x    frame=  197 fps=5.1 q=31.0 size=   10240kB time=00:00:02.40 bitrate=34951.7kbits/s speed=0.062x    frame=  199 fps=5.1 q=31.0 size=   10240kB time=00:00:02.43 bitrate=34472.9kbits/s speed=0.062x    frame=  202 fps=5.1 q=31.0 size=   10752kB time=00:00:02.48 bitrate=35467.8kbits/s speed=0.0623x    frame=  204 fps=5.0 q=31.0 size=   10752kB time=00:00:02.51 bitrate=34998.0kbits/s speed=0.0621x    frame=  207 fps=5.0 q=31.0 size=   11008kB time=00:00:02.56 bitrate=35133.3kbits/s speed=0.0623x    frame=  210 fps=5.0 q=31.0 size=   11264kB time=00:00:02.61 bitrate=35263.4kbits/s speed=0.0625x    frame=  213 fps=5.0 q=31.0 size=   11520kB time=00:00:02.66 bitrate=35388.7kbits/s speed=0.0626x    frame=  215 fps=4.9 q=31.0 size=   11520kB time=00:00:02.70 bitrate=34951.8kbits/s speed=0.0619x    frame=  216 fps=4.9 q=31.0 size=   11776kB time=00:00:02.71 bitrate=35509.3kbits/s speed=0.0614x    frame=  218 fps=4.8 q=31.0 size=   11776kB time=00:00:02.75 bitrate=35078.9kbits/s speed=0.0607x    frame=  219 fps=4.8 q=31.0 size=   11776kB time=00:00:02.76 bitrate=34867.6kbits/s speed=0.0602x    frame=  220 fps=4.7 q=31.0 size=   12032kB time=00:00:02.78 bitrate=35412.3kbits/s speed=0.0594x    frame=  221 fps=4.6 q=31.0 size=   12032kB time=00:00:02.80 bitrate=35201.5kbits/s speed=0.0588x    frame=  224 fps=4.6 q=31.0 size=   12288kB time=00:00:02.85 bitrate=35319.8kbits/s speed=0.059x    frame=  227 fps=4.6 q=31.0 size=   12288kB time=00:00:02.90 bitrate=34710.8kbits/s speed=0.0593x    frame=  230 fps=4.6 q=31.0 size=   12544kB time=00:00:02.95 bitrate=34833.4kbits/s speed=0.0596x    frame=  233 fps=4.6 q=31.0 size=   12800kB time=00:00:03.00 bitrate=34951.9kbits/s speed=0.0598x    frame=  236 fps=4.6 q=31.0 size=   13056kB time=00:00:03.05 bitrate=35066.5kbits/s speed=0.06x    frame=  238 fps=4.6 q=31.0 size=   13312kB time=00:00:03.08 bitrate=35367.5kbits/s speed=0.0601x    frame=  241 fps=4.6 q=31.0 size=   13568kB time=00:00:03.13 bitrate=35472.5kbits/s speed=0.0602x    frame=  244 fps=4.6 q=31.0 size=   13824kB time=00:00:03.18 bitrate=35574.1kbits/s speed=0.0603x    frame=  247 fps=4.6 q=31.0 size=   13824kB time=00:00:03.23 bitrate=35024.0kbits/s speed=0.0605x    frame=  249 fps=4.6 q=31.0 size=   14080kB time=00:00:03.26 bitrate=35308.6kbits/s speed=0.0605x    frame=  251 fps=4.6 q=31.0 size=   14080kB time=00:00:03.30 bitrate=34951.9kbits/s speed=0.0605x    frame=  253 fps=4.6 q=31.0 size=   14336kB time=00:00:03.33 bitrate=35231.6kbits/s speed=0.0606x    frame=  255 fps=4.6 q=31.0 size=   14336kB time=00:00:03.36 bitrate=34882.7kbits/s speed=0.0605x    frame=  257 fps=4.6 q=31.0 size=   14592kB time=00:00:03.40 bitrate=35157.5kbits/s speed=0.0606x    frame=  259 fps=4.6 q=31.0 size=   14848kB time=00:00:03.43 bitrate=35427.0kbits/s speed=0.0606x    frame=  262 fps=4.6 q=31.0 size=   15104kB time=00:00:03.48 bitrate=35520.6kbits/s speed=0.0608x    frame=  265 fps=4.6 q=31.0 size=   15360kB time=00:00:03.53 bitrate=35611.4kbits/s speed=0.0608x    frame=  268 fps=4.6 q=31.0 size=   15616kB time=00:00:03.58 bitrate=35699.8kbits/s speed=0.0609x    frame=  271 fps=4.6 q=31.0 size=   15616kB time=00:00:03.63 bitrate=35208.5kbits/s speed=0.061x    frame=  273 fps=4.5 q=31.0 size=   15872kB time=00:00:03.66 bitrate=35460.4kbits/s speed=0.0611x    frame=  276 fps=4.5 q=31.0 size=   16128kB time=00:00:03.71 bitrate=35547.6kbits/s speed=0.0611x    frame=  278 fps=4.5 q=31.0 size=   16128kB time=00:00:03.75 bitrate=35231.6kbits/s speed=0.0611x    frame=  281 fps=4.5 q=31.0 size=   16384kB time=00:00:03.80 bitrate=35319.9kbits/s speed=0.0612x    frame=  284 fps=4.5 q=31.0 size=   16640kB time=00:00:03.85 bitrate=35405.9kbits/s speed=0.0613x    frame=  286 fps=4.5 q=31.0 size=   16896kB time=00:00:03.88 bitrate=35642.1kbits/s speed=0.0613x    frame=  289 fps=4.5 q=31.0 size=   17152kB time=00:00:03.93 bitrate=35722.2kbits/s speed=0.0614x    frame=  291 fps=4.5 q=31.0 size=   17152kB time=00:00:03.96 bitrate=35422.0kbits/s speed=0.0614x    frame=  294 fps=4.5 q=31.0 size=   17408kB time=00:00:04.01 bitrate=35503.1kbits/s speed=0.0615x    frame=  296 fps=4.5 q=29.0 size=   17664kB time=00:00:04.05 bitrate=35728.8kbits/s speed=0.0609x    frame=  297 fps=4.4 q=31.0 size=   17664kB time=00:00:04.06 bitrate=35582.3kbits/s speed=0.0599x    frame=  299 fps=4.4 q=31.0 size=   17664kB time=00:00:04.10 bitrate=35293.0kbits/s speed=0.0599x    frame=  300 fps=3.9 q=-1.0 Lsize=   21998kB time=00:00:04.95 bitrate=36404.9kbits/s speed=0.065x    
video:21993kB audio:0kB subtitle:0kB other streams:0kB global headers:0kB muxing overhead: 0.020780%
[libx264 @ 0x561246e9b900] frame I:2     Avg QP:24.68  size:795160
[libx264 @ 0x561246e9b900] frame P:76    Avg QP:26.68  size:189801
[libx264 @ 0x561246e9b900] frame B:222   Avg QP:31.81  size: 29303
[libx264 @ 0x561246e9b900] consecutive B-frames:  1.3%  0.0%  0.0% 98.7%
[libx264 @ 0x561246e9b900] mb I  I16..4:  9.2% 73.0% 17.8%
[libx264 @ 0x561246e9b900] mb P  I16..4:  0.3%  1.8%  0.4%  P16..4: 35.3% 18.8% 11.8%  0.0%  0.0%    skip:31.7%
[libx264 @ 0x561246e9b900] mb B  I16..4:  0.0%  0.0%  0.0%  B16..8: 31.5%  2.0%  0.8%  direct: 1.9%  skip:63.9%  L0:37.4% L1:55.2% BI: 7.4%
[libx264 @ 0x561246e9b900] 8x8 transform intra:73.5% inter:74.1%
[libx264 @ 0x561246e9b900] coded y,uvDC,uvAC intra: 83.0% 83.1% 55.6% inter: 11.4% 8.7% 0.7%
[libx264 @ 0x561246e9b900] i16 v,h,dc,p: 63% 20% 13%  5%
[libx264 @ 0x561246e9b900] i8 v,h,dc,ddl,ddr,vr,hd,vl,hu: 11% 11% 12% 12%  9%  9%  9% 13% 15%
[libx264 @ 0x561246e9b900] i4 v,h,dc,ddl,ddr,vr,hd,vl,hu: 15% 13% 11% 11% 11% 10%  9% 11% 10%
[libx264 @ 0x561246e9b900] i8c dc,h,v,p: 62% 16% 14%  8%
[libx264 @ 0x561246e9b900] Weighted P-Frames: Y:0.0% UV:0.0%
[libx264 @ 0x561246e9b900] ref P L0: 64.5% 21.7%  8.9%  4.8%
[libx264 @ 0x561246e9b900] ref B L0: 96.0%  2.8%  1.1%
[libx264 @ 0x561246e9b900] ref B L1: 99.1%  0.9%
[libx264 @ 0x561246e9b900] kb/s:36032.68
	Command being timed: "/usr/bin/ffmpeg -i ../.././Samples/Netflix_Boat_4096x2160_60fps_10bit_420.y4m -c:v libx264 -f mov /home/aleksandr/Pract/Samples/Netflix_Boat_4096x2160_60fps_10bit_420.y4m_tc/output_tc3.mov"
	User time (seconds): 177.27
	System time (seconds): 5.35
	Percent of CPU this job got: 238%
	Elapsed (wall clock) time (h:mm:ss or m:ss): 1:16.55
	Average shared text size (kbytes): 0
	Average unshared data size (kbytes): 0
	Average stack size (kbytes): 0
	Average total size (kbytes): 0
	Maximum resident set size (kbytes): 2033988
	Average resident set size (kbytes): 0
	Major (requiring I/O) page faults: 1
	Minor (reclaiming a frame) page faults: 142093
	Voluntary context switches: 26291
	Involuntary context switches: 5622
	Swaps: 0
	File system inputs: 13081808
	File system outputs: 44072
	Socket messages sent: 0
	Socket messages received: 0
	Signals delivered: 0
	Page size (bytes): 4096
	Exit status: 0
